<svg xmlns="http://www.w3.org/2000/svg" viewBox="0 0 280 406" preserveAspectRatio="xMidYMid meet" class="css-1121bvr" id="dedgbchb"><defs id="SvgjsDefs1513"/><g id="SvgjsG1520" featurekey="root" fill="#000000"/><g id="SvgjsG1521" featurekey="container1" fill="#000000" transform="matrix(1,0,0,1,20,20)"><rect xmlns="http://www.w3.org/2000/svg" width="240" height="371"/></g><g id="SvgjsG1522" featurekey="symbol1" fill="#ffffff" transform="matrix(2.3161009943868054,0,0,2.3161009943868054,24.192648704773816,12.209102896080449)"><g id="SvgjsG1523"><path fill="#ffffff" d="M43.758,60.575l1.002,17.536h0.912L44.1,59.92c-0.098,0.238-0.232,0.455-0.384,0.658L43.758,60.575z"/><path fill="#ffffff" d="M43.917,44.248l2.925,33.864h1.387l-4.107-34.285C44.065,43.974,43.994,44.112,43.917,44.248z"/><polygon fill="#ffffff" points="44.349,98.032 44.297,100.113 45.77,100.113 45.77,98.032 "/><rect x="46.937" y="98.032" fill="#ffffff" width="1.426" height="2.081"/><polygon fill="#ffffff" points="43.129,100.099 43.182,98.032 41.169,98.032 41.169,100.113 43.713,100.113 "/><polygon fill="#ffffff" points="43.628,80.361 41.169,80.361 41.169,95.782 43.238,95.782 "/><polygon fill="#ffffff" points="44.406,95.782 45.77,95.782 45.77,80.361 44.794,80.361 "/><polygon fill="#ffffff" points="52.122,98.032 52.122,100.072 50.955,100.108 50.955,98.032 49.529,98.032 49.53,100.113   53.547,100.113 53.547,98.032 "/><rect x="46.937" y="80.361" fill="#ffffff" width="1.426" height="15.421"/><path fill="#ffffff" d="M66.016,36.526c-1.469,0.284-1.773,2.552-1.773,2.552h-0.486c0.213-4.509,0.437-9.174,0.656-13.638h0.616  c0,0,0.306,2.268,1.773,2.552c1.447,0.281,4.714-0.429,4.787-3.583c-0.073-3.153-3.34-3.864-4.787-3.583  c-1.468,0.284-1.773,2.552-1.773,2.552h-0.516c0.105-2.143,0.209-4.226,0.309-6.201c-0.045-0.332-0.061-0.692-0.078-1.061  c-0.073-1.591-0.183-3.996-3.15-4.117l-22.726,0c-2.943,0.121-3.053,2.525-3.125,4.116c-0.017,0.368-0.033,0.729-0.081,1.167  c0.098,1.94,0.201,3.988,0.306,6.095h-0.994c0,0-0.305-2.268-1.772-2.552c-1.448-0.282-4.717,0.429-4.789,3.583  c0.072,3.154,3.341,3.863,4.789,3.583c1.467-0.284,1.772-2.552,1.772-2.552h1.095c0.22,4.458,0.446,9.124,0.658,13.638h-0.966  c0,0-0.306-2.268-1.772-2.552c-1.448-0.281-4.718,0.429-4.79,3.583c0.072,3.152,3.342,3.863,4.79,3.583  c1.467-0.284,1.772-2.552,1.772-2.552h1.063c0.233,4.99,0.445,9.704,0.61,13.636h-0.886c0,0-0.307-2.267-1.773-2.55  c-1.448-0.283-4.715,0.429-4.788,3.582c0.073,3.152,3.34,3.863,4.788,3.583c1.467-0.285,1.773-2.552,1.773-2.552h0.972  c0.186,4.6,0.288,7.784,0.25,8.493c-0.182,0.352-0.031,1.266,1.917,9.082c0.415,1.664,0.84,3.369,0.894,3.696h3.014l-0.953-16.647  c-0.388,0.187-0.817,0.301-1.276,0.301c-1.632,0-2.958-1.333-2.958-2.979c0-1.645,1.325-2.977,2.958-2.977  c1.056,0,1.977,0.56,2.5,1.397L42.839,45.33c-0.436,0.254-0.934,0.41-1.474,0.41c-1.632,0-2.958-1.333-2.958-2.978  c0-1.645,1.325-2.978,2.958-2.978c1.005,0,1.891,0.507,2.425,1.278l-1.384-11.56c-0.327,0.125-0.671,0.213-1.041,0.213  c-1.632,0-2.958-1.332-2.958-2.978c0-1.645,1.325-2.978,2.958-2.978c1.635,0,2.959,1.333,2.959,2.978c0,0.8-0.319,1.518-0.829,2.053  l5.903,49.322h1.68l5.427-49.319c-0.51-0.535-0.83-1.255-0.83-2.056c0-1.645,1.324-2.978,2.959-2.978  c1.632,0,2.958,1.333,2.958,2.978c0,1.646-1.326,2.978-2.958,2.978c-0.367,0-0.708-0.087-1.033-0.209l-1.253,11.389  c0.541-0.672,1.358-1.11,2.286-1.11c1.632,0,2.958,1.333,2.958,2.978c0,1.645-1.326,2.978-2.958,2.978  c-0.531,0-1.021-0.152-1.452-0.398l-0.844,11.587c0.543-0.677,1.363-1.119,2.296-1.119c1.632,0,2.958,1.332,2.958,2.977  c0,1.646-1.326,2.979-2.958,2.979c-0.45,0-0.872-0.109-1.254-0.29l-0.539,16.637h3.062c0.054-0.327,0.479-2.033,0.895-3.697  c1.95-7.817,2.101-8.73,1.918-9.081c-0.038-0.709,0.063-3.892,0.251-8.493h0.486c0,0,0.308,2.267,1.773,2.552  c1.45,0.28,4.716-0.431,4.789-3.583c-0.073-3.153-3.339-3.865-4.789-3.582c-1.466,0.283-1.773,2.55-1.773,2.55h-0.402  c0.165-3.931,0.377-8.644,0.609-13.636h0.582c0,0,0.305,2.268,1.773,2.552c1.447,0.28,4.716-0.43,4.789-3.583  C70.731,36.956,67.463,36.245,66.016,36.526z"/><rect x="52.121" y="80.361" fill="#ffffff" width="1.426" height="15.421"/><polygon fill="#ffffff" points="56.111,98.032 54.714,98.032 54.714,100.113 56.164,100.113 "/><polygon fill="#ffffff" points="57.278,98.032 57.331,100.099 56.747,100.113 59.313,100.113 59.313,98.032 "/><polygon fill="#ffffff" points="59.313,80.361 56.831,80.361 57.222,95.782 59.313,95.782 "/><polygon fill="#ffffff" points="54.713,80.361 54.714,95.782 56.054,95.782 55.666,80.361 "/><path fill="#ffffff" d="M54.798,78.111h0.876l0.567-17.522l0.055,0.003c-0.074-0.097-0.141-0.196-0.202-0.3L54.798,78.111z"/><rect x="49.526" y="80.361" fill="#ffffff" width="1.429" height="15.421"/><path fill="#ffffff" d="M52.25,78.111h1.379l2.462-33.853c-0.033-0.057-0.065-0.115-0.095-0.174L52.25,78.111z"/></g></g><g id="SvgjsG1524" featurekey="text1" fill="#ffffff" transform="matrix(1.5757477760048666,0,0,1.5757477760048666,38.76894742568375,256.47394606870034)"><path d="M0.78125 7.949375 l9.4434 8.9941 l0 -8.7012 l3.1543 0 l0 16.035 l-9.4434 -9.0039 l0 8.7109 l-3.1543 0 l0 -16.035 z M14.94140625 8.242375 l9.4434 0 l0 3.1445 l-6.2891 0 l0 3.1543 l4.7168 0 l0 3.1445 l-4.7168 0 l0 3.1445 l6.2891 0 l0 3.1543 l-6.2891 0 l-3.1543 0 l0 -15.742 z M25.458989375 8.242375 l3.3887 0 l2.9004 7.4219 l2.9004 -7.4219 l2.9004 7.4219 l2.8906 -7.4219 l3.3984 0 l-6.2891 16.035 l-2.9297 -7.8027 l-2.8711 7.8027 z  M55.546890625 20.878875 l-0.0097656 -0.019531 c0.86914 0 1.5918 -0.72266 1.5918 -1.5918 c0 -0.67383 -0.26367 -1.1035 -0.80078 -1.2988 c-1.1328 -0.41992 -0.85938 -0.32227 -1.9629 -0.70313 c-1.1621 -0.40039 -2.2363 -1.1914 -2.959 -2.1777 c-0.42969 -0.58594 -0.64453 -1.3086 -0.64453 -2.1777 c0 -1.3086 0.46875 -2.4316 1.4063 -3.3691 s2.0605 -1.4063 3.3789 -1.4063 c1.3086 0 2.4316 0.46875 3.3691 1.4063 s1.4063 2.0605 1.4063 3.3691 l-3.1738 0 c0 -0.85938 -0.72266 -1.582 -1.582 -1.582 c-0.86914 0 -1.5918 0.72266 -1.5918 1.5918 c0 0.56641 0.22461 0.99609 0.68359 1.2891 c0.9375 0.60547 0.83008 0.48828 1.9531 0.82031 c1.2109 0.35156 2.3047 1.1035 3.0566 2.0703 c0.43945 0.56641 0.66406 1.2988 0.66406 2.1875 c0 1.3184 -0.46875 2.4414 -1.4063 3.3789 s-2.0605 1.4063 -3.3691 1.4063 c-1.3184 0 -2.4414 -0.46875 -3.3789 -1.4063 s-1.4063 -2.0605 -1.4063 -3.3789 l3.1836 0 c0 0.87891 0.71289 1.5918 1.5918 1.5918 z M71.26009375 8.242375 l3.1738 0 l0 6.3281 l0 3.1641 c0 1.748 -0.61523 3.2422 -1.8555 4.4824 s-2.7344 1.8555 -4.4727 1.8555 c-1.748 0 -3.2422 -0.61523 -4.4824 -1.8555 s-1.8555 -2.7344 -1.8555 -4.4824 l0 -3.1641 l0 -6.3281 l3.1738 0 l0 6.3281 l0 2.832 l0 0.32227 c0 0.86914 0.3125 1.6113 0.92773 2.2266 s1.3574 0.92773 2.2266 0.92773 c0.85938 0 1.6016 -0.3125 2.2266 -0.92773 s0.9375 -1.3574 0.9375 -2.2266 l0 -0.32227 l0 -2.832 l0 -6.3281 z M75.986328125 7.949375 l9.4434 8.9941 l0 -8.7012 l3.1543 0 l0 16.035 l-9.4434 -9.0039 l0 8.7109 l-3.1543 0 l0 -16.035 z M90.146484375 23.984375 l-0.0097656 -15.762 l5.1172 0 c1.5137 0 3.0078 0.52734 4.0918 1.6113 s1.5234 2.0996 1.5234 3.6133 l0 0.48828 c0 1.1719 -0.33203 2.0313 -0.99609 2.9688 s-1.2207 1.2109 -2.2559 1.6016 l3.5547 5.4785 l-3.8477 0 l-4.0234 -6.1523 l0 6.1523 l-3.1543 0 z M93.291034375 15.800775 l2.2559 0.0097656 c0.6543 0 0.98633 -0.16602 1.4453 -0.625 s0.625 -0.98633 0.625 -1.6406 c0 -0.64453 -0.16602 -1.0742 -0.625 -1.543 s-1.2793 -0.63477 -1.9336 -0.63477 l-1.7676 0 l0 4.4336 z M102.63671875 23.984375 l0 -15.742 l3.1543 0 l0 15.742 l-3.1543 0 z M112.031265625 20.878875 l-0.0097656 -0.019531 c0.86914 0 1.5918 -0.72266 1.5918 -1.5918 c0 -0.67383 -0.26367 -1.1035 -0.80078 -1.2988 c-1.1328 -0.41992 -0.85938 -0.32227 -1.9629 -0.70313 c-1.1621 -0.40039 -2.2363 -1.1914 -2.959 -2.1777 c-0.42969 -0.58594 -0.64453 -1.3086 -0.64453 -2.1777 c0 -1.3086 0.46875 -2.4316 1.4063 -3.3691 s2.0605 -1.4063 3.3789 -1.4063 c1.3086 0 2.4316 0.46875 3.3691 1.4063 s1.4063 2.0605 1.4063 3.3691 l-3.1738 0 c0 -0.85938 -0.72266 -1.582 -1.582 -1.582 c-0.86914 0 -1.5918 0.72266 -1.5918 1.5918 c0 0.56641 0.22461 0.99609 0.68359 1.2891 c0.9375 0.60547 0.83008 0.48828 1.9531 0.82031 c1.2109 0.35156 2.3047 1.1035 3.0566 2.0703 c0.43945 0.56641 0.66406 1.2988 0.66406 2.1875 c0 1.3184 -0.46875 2.4414 -1.4063 3.3789 s-2.0605 1.4063 -3.3691 1.4063 c-1.3184 0 -2.4414 -0.46875 -3.3789 -1.4063 s-1.4063 -2.0605 -1.4063 -3.3789 l3.1836 0 c0 0.87891 0.71289 1.5918 1.5918 1.5918 z M118.26171875 8.242375 l9.4434 0 l0 3.1445 l-6.2891 0 l0 3.1543 l4.7168 0 l0 3.1445 l-4.7168 0 l0 3.1445 l6.2891 0 l0 3.1543 l-6.2891 0 l-3.1543 0 l0 -15.742 z"/></g><g id="SvgjsG1525" featurekey="text2" fill="#ffffff" transform="matrix(3.7660883102195717,0,0,3.7660883102195717,37.0210461129746,275.06236779240544)"><path d="M4.707 8.291375 l-0.0097656 0 c2.1094 0 3.877 1.748 3.916 3.8379 c0 0.41992 -0.14648 0.9082 -0.27344 1.2988 c1.7969 0.78125 3.4082 2.5586 3.4082 5.0488 c0 1.5039 -0.53711 2.793 -1.6113 3.8672 s-2.3633 1.6113 -3.8672 1.6113 l-5.4785 0 l0 -15.664 l3.916 0 z M3.916 13.300375 l0.78125 0 c0.52734 0 0.94727 -0.40039 0.94727 -0.91797 c0 -0.52734 -0.41992 -0.9668 -0.94727 -0.9668 l-0.78125 0 l0 1.8848 z M6.2598 20.820275 c1.2891 0 2.3535 -1.0547 2.3535 -2.334 c0 -0.6543 -0.23438 -1.2109 -0.69336 -1.6699 s-1.0156 -0.48828 -1.6602 -0.48828 l-2.3438 0 l0 4.4922 l2.3438 0 z M18.2812375 18.779275 l2.7832 0 l-1.3867 -3.2715 z M16.9922375 21.562475 l-0.039063 0.11719 l-1.0254 2.2656 l-0.54688 0 l-0.12695 0 l-2.0508 0 l-0.67383 0 l7.1387 -15.996 l7.1582 15.996 l-0.67383 0 l-2.0508 0 l-0.13672 0 l-0.54688 0 l-1.0156 -2.2754 l-0.048828 -0.10742 l-5.3613 0 z M28.0078125 7.949375 l9.4434 8.9941 l0 -8.7012 l3.1543 0 l0 16.035 l-9.4434 -9.0039 l0 8.7109 l-3.1543 0 l0 -16.035 z M46.04491875 8.281375 l0 -0.0097656 c2.1582 0 4.1992 0.77148 5.7422 2.3145 c2.8125 2.8125 2.8125 8.291 0 11.094 c-1.543 1.5332 -3.584 2.3047 -5.7422 2.3047 l-3.8867 0 l0 -15.703 l3.8867 0 z M46.05471875 20.830075 l0.0097656 0 c1.2891 0 2.4805 -0.36133 3.3984 -1.2793 s1.2793 -2.1289 1.2793 -3.4277 c0 -1.2891 -0.36133 -2.5 -1.2891 -3.4277 c-0.91797 -0.92773 -2.1289 -1.2891 -3.418 -1.2891 l-0.72266 0 l0 9.4238 l0.74219 0 z"/></g></svg>
